<svg width="41" height="40" viewBox="0 0 41 40" fill="none" xmlns="http://www.w3.org/2000/svg">
<ellipse cx="20.3509" cy="20" rx="19.9481" ry="20" fill="#665A87"/>
<path d="M31.7183 28.3088H10.1568C9.30667 28.3088 8.6167 27.617 8.6167 26.7647V12.8676C8.6167 12.0153 9.30667 11.3235 10.1568 11.3235H31.7183C32.5684 11.3235 33.2584 12.0153 33.2584 12.8676V26.7647C33.2584 27.617 32.5684 28.3088 31.7183 28.3088Z" fill="#E79922"/>
<path d="M31.7183 28.3088H10.1568C9.29281 28.3088 8.6167 27.631 8.6167 26.7647C8.6167 26.5192 8.73375 26.2876 8.93088 26.1424L20.4817 18.4218C20.6172 18.3215 20.7774 18.2721 20.9376 18.2721C21.0977 18.2721 21.2579 18.3215 21.3934 18.4218L32.9442 26.1424C33.1414 26.2876 33.2584 26.5192 33.2584 26.7647C33.2584 27.631 32.5823 28.3088 31.7183 28.3088Z" fill="#F6A21E"/>
<path d="M31.7183 11.3235H10.1568C9.29281 11.3235 8.6167 12.0014 8.6167 12.8676C8.6167 13.1131 8.73375 13.3448 8.93088 13.4899L20.4878 21.8081C20.7558 22.0011 21.1177 22.0011 21.3857 21.8081L32.9427 13.4899C33.1414 13.3448 33.2584 13.1131 33.2584 12.8676C33.2584 12.0014 32.5823 11.3235 31.7183 11.3235Z" fill="#F1CA2D"/>
</svg>
