<svg width="41" height="40" viewBox="0 0 41 40" fill="none" xmlns="http://www.w3.org/2000/svg">
<ellipse cx="20.4881" cy="20" rx="19.9481" ry="20" fill="#665A87"/>
<path d="M13.9345 10.09L15.3872 12.4018C15.676 12.8622 15.5813 13.4808 15.1701 13.8206L13.3814 15.2966C12.9932 15.6136 12.8817 16.1839 13.119 16.6386C13.6442 17.6401 14.1418 18.821 16.6051 21.4374C19.0685 24.0538 20.1849 24.5783 21.129 25.1354C21.5576 25.3871 22.0953 25.2688 22.3942 24.8571L23.7856 22.9597C24.1059 22.5235 24.6891 22.4231 25.1231 22.7293L27.3716 24.3192L29.9011 26.1081C30.3434 26.4209 30.4762 27.0471 30.2028 27.5306L29.0041 29.65C28.686 30.2229 28.1723 30.6439 27.5695 30.826C25.5774 31.4056 21.1833 31.5228 14.1406 24.0521C7.09787 16.5814 7.20803 11.9199 7.75441 9.80669C7.92607 9.16726 8.32299 8.62236 8.86296 8.28485L10.861 7.01335C11.3169 6.72334 11.9071 6.86421 12.202 7.33342L13.9345 10.09Z" fill="#F6A21E"/>
<path d="M20.5101 9.78366C20.2929 9.78366 20.1167 9.97048 20.1167 10.201C20.1167 10.4315 20.2928 10.6183 20.5101 10.6183C24.2018 10.6226 27.1935 13.7961 27.1976 17.7122C27.1976 17.9426 27.3737 18.1295 27.591 18.1295C27.8083 18.1295 27.9844 17.9427 27.9844 17.7122C27.9798 13.3354 24.6361 9.78848 20.5101 9.78366Z" fill="#F1CA2D"/>
<path d="M20.5096 12.2874C20.2924 12.2874 20.1162 12.4743 20.1162 12.7048C20.1162 12.9352 20.2923 13.1221 20.5096 13.1221C22.8983 13.125 24.834 15.1784 24.8368 17.7122C24.8368 17.9427 25.0129 18.1295 25.2302 18.1295C25.4475 18.1295 25.6236 17.9427 25.6236 17.7122C25.6203 14.7176 23.3326 12.2909 20.5096 12.2874Z" fill="#F1CA2D"/>
<path d="M20.5096 14.7912C20.2924 14.7912 20.1162 14.978 20.1162 15.2085C20.1162 15.439 20.2923 15.6258 20.5096 15.6258C21.5954 15.6272 22.4752 16.5605 22.4765 17.7123C22.4765 17.9427 22.6526 18.1296 22.8699 18.1296C23.0872 18.1296 23.2633 17.9428 23.2633 17.7123C23.2615 16.0997 22.0297 14.793 20.5096 14.7912Z" fill="#F1CA2D"/>
<path d="M18.5423 26.8926C18.4572 26.8928 18.3743 26.8635 18.3063 26.8091C15.1505 24.2987 11.6861 19.4231 11.5401 19.2145C11.4558 19.0952 11.4378 18.9373 11.493 18.8002C11.5483 18.6631 11.6682 18.5677 11.8078 18.5498C11.9473 18.532 12.0852 18.5945 12.1695 18.7137C12.2045 18.7634 15.7135 23.7029 18.7783 26.1415C18.9138 26.2493 18.9691 26.4369 18.9155 26.6073C18.862 26.7777 18.7117 26.8926 18.5423 26.8926Z" fill="#F1CA2D"/>
<path d="M19.723 27.7272C19.9403 27.7272 20.1164 27.5404 20.1164 27.3099C20.1164 27.0794 19.9403 26.8926 19.723 26.8926C19.5057 26.8926 19.3296 27.0794 19.3296 27.3099C19.3296 27.5404 19.5057 27.7272 19.723 27.7272Z" fill="#F1CA2D"/>
</svg>
