<svg width="144" height="46" viewBox="0 0 144 46" fill="none" xmlns="http://www.w3.org/2000/svg">
<path d="M108.728 20.9629C110.36 21.2508 111.659 22.036 112.624 23.3186C113.613 24.6011 114.108 26.1847 114.108 28.0692C114.108 29.247 113.898 30.3202 113.477 31.2886C113.082 32.2833 112.5 33.1208 111.733 33.8014C110.991 34.5081 110.088 35.0446 109.025 35.4111C107.986 35.8037 106.823 36 105.537 36C103.657 36 102.012 35.5943 100.602 34.7829C99.1916 33.9977 98.1279 32.8984 97.4105 31.4849L99.1545 29.7967C99.674 30.9484 100.466 31.8645 101.529 32.545C102.593 33.2255 103.929 33.5658 105.537 33.5658C107.392 33.5658 108.852 33.0816 109.915 32.1131C110.979 31.1709 111.511 29.8098 111.511 28.0299C111.511 26.2239 110.954 24.7974 109.841 23.7504C108.728 22.7035 107.12 22.18 105.017 22.18H104.09V19.9028H105.091C106.996 19.9028 108.456 19.4448 109.47 18.5287C110.484 17.5864 110.991 16.3693 110.991 14.8774C110.991 14.0921 110.855 13.3985 110.583 12.7965C110.311 12.1945 109.928 11.6972 109.433 11.3046C108.963 10.8858 108.394 10.5717 107.726 10.3623C107.083 10.1529 106.378 10.0482 105.611 10.0482C104.201 10.0482 102.952 10.3885 101.863 11.069C100.8 11.7234 99.9956 12.6395 99.4513 13.8173L97.8187 12.1683C98.1155 11.4878 98.5361 10.8727 99.0803 10.3231C99.6245 9.74722 100.243 9.26299 100.936 8.87038C101.628 8.47776 102.395 8.17676 103.236 7.96737C104.077 7.7318 104.943 7.61401 105.834 7.61401C106.971 7.61401 108.01 7.78415 108.95 8.12441C109.915 8.46468 110.744 8.9489 111.437 9.57708C112.129 10.1791 112.661 10.912 113.032 11.7757C113.428 12.6395 113.626 13.5948 113.626 14.6418C113.626 15.427 113.514 16.1861 113.292 16.919C113.069 17.6257 112.748 18.2669 112.327 18.8428C111.907 19.3924 111.387 19.8636 110.769 20.2562C110.175 20.6226 109.495 20.8582 108.728 20.9629Z" fill="url(#paint0_linear_141_610)"/>
<path d="M130.811 29.3618C131.385 29.3618 131.894 29.4948 132.338 29.7609C132.781 30.027 133.121 30.4012 133.356 30.8835C133.599 31.3658 133.721 31.9313 133.721 32.5799C133.721 33.2285 133.599 33.8023 133.356 34.3012C133.112 34.7919 132.768 35.1744 132.325 35.4488C131.889 35.7149 131.385 35.8479 130.811 35.8479C130.271 35.8479 129.806 35.7357 129.414 35.5112C129.031 35.2866 128.744 34.9623 128.553 34.5382V35.7606H127.756V26.5802H128.539V30.684C128.731 30.2515 129.022 29.9231 129.414 29.6986C129.806 29.474 130.271 29.3618 130.811 29.3618ZM130.719 35.1744C131.398 35.1744 131.929 34.9457 132.311 34.4883C132.694 34.031 132.886 33.3948 132.886 32.5799C132.886 31.7733 132.694 31.1455 132.311 30.6964C131.929 30.2474 131.393 30.0229 130.706 30.0229C130.019 30.0229 129.488 30.2474 129.114 30.6964C128.74 31.1455 128.553 31.7816 128.553 32.6049C128.553 33.4281 128.74 34.0642 129.114 34.5133C129.488 34.954 130.023 35.1744 130.719 35.1744Z" fill="black"/>
<path d="M143.561 29.5115L140.481 36.4093C140.177 37.0911 139.794 37.5901 139.333 37.9061C138.88 38.2304 138.31 38.459 137.623 38.5921L137.466 37.9934C138.093 37.852 138.563 37.6691 138.876 37.4445C139.198 37.22 139.468 36.8666 139.685 36.3843L139.959 35.7731L137.166 29.5115H138.014L140.377 34.9998L142.752 29.5115H143.561Z" fill="black"/>
<circle cx="120.17" cy="35.4312" r="0.632205" fill="black"/>
<path d="M84.2253 35.684C83.1126 35.684 82.1264 35.4058 81.2666 34.8495C80.4237 34.2763 79.7409 33.5598 79.2183 32.7V40.8175H77.4987V22.256H79.0412V24.8101C79.5807 23.984 80.2804 23.3181 81.1402 22.8123C82 22.2897 82.9356 22.0284 83.9471 22.0284C84.8575 22.0284 85.692 22.2223 86.4507 22.61C87.2093 22.9809 87.8668 23.4867 88.4232 24.1273C88.9795 24.7511 89.4094 25.476 89.7129 26.3021C90.0332 27.1282 90.1933 27.9795 90.1933 28.8562C90.1933 29.7834 90.05 30.6601 89.7634 31.4862C89.4768 32.3123 89.0638 33.0372 88.5243 33.661C88.0017 34.2847 87.3695 34.7821 86.6277 35.153C85.9028 35.507 85.102 35.684 84.2253 35.684ZM83.7448 34.1667C84.4529 34.1667 85.0935 34.015 85.6667 33.7115C86.2568 33.4081 86.7541 33.0119 87.1588 32.523C87.5802 32.0172 87.9005 31.4525 88.1197 30.8287C88.3389 30.188 88.4484 29.5305 88.4484 28.8562C88.4484 28.1481 88.322 27.4738 88.0691 26.8331C87.8162 26.1925 87.4706 25.6277 87.0323 25.1388C86.594 24.6499 86.0714 24.2622 85.4644 23.9756C84.8744 23.689 84.2337 23.5457 83.5425 23.5457C83.1042 23.5457 82.6406 23.6384 82.1517 23.8238C81.6796 23.9924 81.2329 24.2285 80.8114 24.5319C80.4068 24.8185 80.0528 25.1641 79.7493 25.5687C79.4627 25.9565 79.2857 26.3695 79.2183 26.8079V30.854C79.4206 31.326 79.6734 31.7643 79.9769 32.169C80.2972 32.5736 80.6513 32.9276 81.039 33.2311C81.4436 33.5177 81.8735 33.7452 82.3287 33.9138C82.7839 34.0824 83.2559 34.1667 83.7448 34.1667Z" fill="black"/>
<path d="M55.9827 35.684C55.0218 35.684 54.1451 35.507 53.3528 35.153C52.5604 34.7821 51.8692 34.2847 51.2791 33.661C50.7059 33.0372 50.2592 32.3123 49.9388 31.4862C49.6185 30.6601 49.4584 29.7919 49.4584 28.8815C49.4584 27.9543 49.6185 27.0776 49.9388 26.2515C50.276 25.4254 50.7312 24.7005 51.3044 24.0767C51.8945 23.453 52.5857 22.9556 53.378 22.5847C54.1704 22.2138 55.0386 22.0284 55.9827 22.0284C56.9268 22.0284 57.7951 22.2138 58.5874 22.5847C59.3966 22.9556 60.0879 23.453 60.661 24.0767C61.2511 24.7005 61.7063 25.4254 62.0266 26.2515C62.3638 27.0776 62.5324 27.9543 62.5324 28.8815C62.5324 29.7919 62.3722 30.6601 62.0519 31.4862C61.7316 32.3123 61.2764 33.0372 60.6863 33.661C60.1131 34.2847 59.4219 34.7821 58.6127 35.153C57.8203 35.507 56.9437 35.684 55.9827 35.684ZM51.2033 28.9068C51.2033 29.6486 51.3297 30.3398 51.5826 30.9804C51.8355 31.6042 52.1726 32.1605 52.5941 32.6494C53.0324 33.1215 53.5382 33.4924 54.1114 33.7621C54.7015 34.0318 55.3252 34.1667 55.9827 34.1667C56.6402 34.1667 57.2556 34.0318 57.8288 33.7621C58.4188 33.4755 58.933 33.0962 59.3714 32.6241C59.8097 32.1352 60.1553 31.5705 60.4082 30.9298C60.661 30.2892 60.7875 29.598 60.7875 28.8562C60.7875 28.1313 60.661 27.4485 60.4082 26.8079C60.1553 26.1504 59.8097 25.5856 59.3714 25.1135C58.933 24.6246 58.4188 24.2453 57.8288 23.9756C57.2556 23.689 56.6402 23.5457 55.9827 23.5457C55.3252 23.5457 54.7099 23.689 54.1367 23.9756C53.5635 24.2453 53.0577 24.6246 52.6194 25.1135C52.1811 25.6024 51.8355 26.1756 51.5826 26.8331C51.3297 27.4738 51.2033 28.165 51.2033 28.9068Z" fill="black"/>
<path d="M29.7536 34.799C29.6524 34.8496 29.5007 34.917 29.2984 35.0013C29.1129 35.0856 28.8938 35.1699 28.6409 35.2542C28.388 35.3385 28.1014 35.4143 27.7811 35.4818C27.4608 35.5492 27.1236 35.5829 26.7696 35.5829C26.3987 35.5829 26.0446 35.5323 25.7075 35.4312C25.3703 35.33 25.0753 35.1783 24.8224 34.976C24.5695 34.7568 24.3672 34.4871 24.2155 34.1668C24.0637 33.8465 23.9879 33.4756 23.9879 33.0541V23.6216H22.1671V22.256H23.9879V17.8053H25.7075V22.256H28.742V23.6216H25.7075V32.5736C25.7412 33.0625 25.9098 33.425 26.2132 33.661C26.5335 33.8802 26.896 33.9898 27.3006 33.9898C27.7895 33.9898 28.2194 33.9139 28.5903 33.7622C28.9612 33.5936 29.1972 33.4756 29.2984 33.4081L29.7536 34.799Z" fill="black"/>
<path d="M5.92592 35.4313L0.564819 22.2561H2.33499L6.86158 33.8381L11.4135 22.2561H13.0825L7.72138 35.4313H5.92592Z" fill="black"/>
<path fill-rule="evenodd" clip-rule="evenodd" d="M42.2222 18.7989C42.6323 19.0604 42.7528 19.6048 42.4913 20.0149C40.9328 22.459 40.0297 25.3611 40.0297 28.4769C40.0297 37.1819 47.0865 44.2387 55.7916 44.2387C63.6816 44.2387 70.219 38.4406 71.3726 30.873C71.4459 30.3922 71.8951 30.0618 72.3759 30.1351C72.8567 30.2084 73.1871 30.6576 73.1138 31.1384C71.831 39.5533 64.5649 46 55.7916 46C46.1138 46 38.2684 38.1546 38.2684 28.4769C38.2684 25.0158 39.2728 21.7866 41.0062 19.068C41.2677 18.6579 41.8121 18.5374 42.2222 18.7989Z" fill="url(#paint1_linear_141_610)"/>
<path d="M46.2736 12.2207C46.6796 12.0221 47.1483 12.3374 47.1174 12.7883L46.3209 24.3896C46.2795 24.9935 45.4618 25.1471 45.204 24.5994L42.7236 19.3289C42.6339 19.1383 42.4488 19.0103 42.2388 18.9937L35.9378 18.4943C35.3423 18.4471 35.1896 17.6442 35.7262 17.3817L46.2736 12.2207Z" fill="url(#paint2_linear_141_610)"/>
<path d="M52.6687 6.52432C52.6197 6.22721 52.817 5.94229 53.1098 5.88728L56.2881 5.29017C56.5809 5.23517 56.8575 5.43107 56.9065 5.72818C56.9555 6.02529 56.7583 6.31022 56.4655 6.36523L53.2871 6.96233C52.9943 7.01734 52.7177 6.82143 52.6687 6.52432Z" fill="#5C6ABF"/>
<path d="M51.5764 4.80064C51.3321 4.63809 51.2762 4.29722 51.4541 4.05502L53.3191 1.36382C53.4864 1.12358 53.8241 1.05983 54.0683 1.22238C54.3037 1.39754 54.3596 1.73841 54.1923 1.97865L52.315 4.6612C52.1494 4.91213 51.8118 4.97587 51.5764 4.80064Z" fill="#5C6ABF"/>
<path d="M44.3238 3.0361C44.4957 2.78916 44.8296 2.72613 45.0698 2.89527L47.679 4.7326C47.9192 4.90173 47.9745 5.2388 47.8025 5.48574C47.6306 5.73268 47.2967 5.79571 47.0565 5.62658L44.4473 3.78924C44.2071 3.62011 44.1518 3.28307 44.3238 3.0361Z" fill="#5C6ABF"/>
<path d="M52.2176 8.52819C52.3896 8.28125 52.7235 8.21822 52.9637 8.38735L55.5729 10.2247C55.8131 10.3938 55.8684 10.7309 55.6964 10.9778C55.5244 11.2248 55.1905 11.2878 54.9503 11.1187L52.3411 9.28134C52.1009 9.1122 52.0456 8.77517 52.2176 8.52819Z" fill="#5C6ABF"/>
<path d="M48.9467 3.9326L48.4214 0.749407C48.3731 0.456165 48.5677 0.174975 48.8565 0.120722C49.1454 0.0664685 49.4183 0.259857 49.4667 0.553099L49.992 3.73629C50.0404 4.02953 49.8458 4.31072 49.5569 4.36497C49.268 4.41923 48.9951 4.22584 48.9467 3.9326Z" fill="#5C6ABF"/>
<path d="M54.0709 1.22891L51.5756 4.79476C51.3304 4.63245 51.2739 4.2925 51.4521 4.05115L53.3196 1.36927C53.4871 1.12986 53.8257 1.0666 54.0709 1.22891Z" fill="#5C6ABF"/>
<defs>
<linearGradient id="paint0_linear_141_610" x1="105.759" y1="7.61401" x2="105.759" y2="36" gradientUnits="userSpaceOnUse">
<stop stop-color="#56295A"/>
<stop offset="1" stop-color="#5C6ABF"/>
</linearGradient>
<linearGradient id="paint1_linear_141_610" x1="38.8563" y1="26.8964" x2="68.2539" y2="9.19461" gradientUnits="userSpaceOnUse">
<stop/>
<stop offset="0.807292" stop-color="#3D3D3D" stop-opacity="0"/>
</linearGradient>
<linearGradient id="paint2_linear_141_610" x1="45.1277" y1="13.9322" x2="35.5217" y2="28.2128" gradientUnits="userSpaceOnUse">
<stop stop-color="#5C6ABF"/>
<stop offset="1" stop-color="#56295A"/>
</linearGradient>
</defs>
</svg>
