<svg width="25" height="24" viewBox="0 0 25 24" fill="none" xmlns="http://www.w3.org/2000/svg">
<path fill-rule="evenodd" clip-rule="evenodd" d="M12.4141 24C19.0415 24 24.4141 18.6274 24.4141 12C24.4141 5.37258 19.0415 0 12.4141 0C5.78665 0 0.414062 5.37258 0.414062 12C0.414062 18.6274 5.78665 24 12.4141 24ZM8.53406 14.78V16.27H9.87406V14.78H10.7541V13.58H9.87406V9.29H8.96406L5.61406 13.59V14.78H8.53406ZM8.68406 13.58H6.95406L8.68406 11.32V13.58ZM11.707 13.56V15H12.807V13.56H11.707ZM18.613 14.05C18.853 13.7233 18.973 13.34 18.973 12.9C18.973 12.6267 18.9197 12.38 18.813 12.16C18.7064 11.94 18.5664 11.75 18.393 11.59C18.2197 11.43 18.0364 11.3 17.843 11.2C18.0164 11.12 18.1697 11.0133 18.303 10.88C18.443 10.74 18.553 10.5833 18.633 10.41C18.7197 10.23 18.763 10.0467 18.763 9.86C18.763 9.54 18.6897 9.26 18.543 9.02C18.403 8.77333 18.2164 8.56667 17.983 8.4C17.7497 8.23333 17.493 8.11 17.213 8.03C16.933 7.94333 16.6597 7.9 16.393 7.9C16.1197 7.9 15.843 7.94333 15.563 8.03C15.2897 8.11 15.0364 8.23667 14.803 8.41C14.5697 8.57667 14.383 8.78333 14.243 9.03C14.103 9.27667 14.033 9.55667 14.033 9.87C14.033 10.0633 14.073 10.2467 14.153 10.42C14.233 10.5933 14.3397 10.7467 14.473 10.88C14.613 11.0133 14.763 11.12 14.923 11.2C14.7497 11.2867 14.5764 11.41 14.403 11.57C14.2364 11.7233 14.0964 11.91 13.983 12.13C13.8697 12.3433 13.813 12.5833 13.813 12.85C13.813 13.2833 13.9264 13.67 14.153 14.01C14.3864 14.3433 14.6964 14.6067 15.083 14.8C15.4764 14.9933 15.9097 15.09 16.383 15.09C16.8497 15.09 17.2797 15 17.673 14.82C18.0664 14.6333 18.3797 14.3767 18.613 14.05ZM17.513 12.37C17.5797 12.4967 17.613 12.6467 17.613 12.82C17.613 13.02 17.5564 13.2 17.443 13.36C17.3297 13.52 17.1797 13.6467 16.993 13.74C16.8064 13.8333 16.6064 13.88 16.393 13.88C16.2397 13.88 16.0897 13.8567 15.943 13.81C15.803 13.7567 15.673 13.6833 15.553 13.59C15.4397 13.4967 15.3464 13.3867 15.273 13.26C15.2064 13.1267 15.173 12.98 15.173 12.82C15.173 12.6067 15.2297 12.42 15.343 12.26C15.4564 12.1 15.603 11.9767 15.783 11.89C15.9697 11.8033 16.1697 11.76 16.383 11.76C16.5364 11.76 16.6864 11.7833 16.833 11.83C16.9797 11.8767 17.113 11.9467 17.233 12.04C17.353 12.1267 17.4464 12.2367 17.513 12.37ZM15.543 10.37C15.443 10.2433 15.393 10.09 15.393 9.91C15.393 9.74333 15.4364 9.6 15.523 9.48C15.6164 9.35333 15.7397 9.25667 15.893 9.19C16.0464 9.12333 16.2097 9.09 16.383 9.09C16.5697 9.09 16.7364 9.12333 16.883 9.19C17.0364 9.25667 17.1597 9.35 17.253 9.47C17.3464 9.59 17.393 9.73333 17.393 9.9C17.393 10.0867 17.3397 10.2433 17.233 10.37C17.133 10.49 17.0064 10.5833 16.853 10.65C16.7064 10.7167 16.553 10.75 16.393 10.75C16.2397 10.75 16.083 10.72 15.923 10.66C15.7697 10.5933 15.643 10.4967 15.543 10.37Z" fill="#C4C4C4"/>
</svg>
