<svg width="25" height="24" viewBox="0 0 25 24" fill="none" xmlns="http://www.w3.org/2000/svg">
<path fill-rule="evenodd" clip-rule="evenodd" d="M12.4141 24C19.0415 24 24.4141 18.6274 24.4141 12C24.4141 5.37258 19.0415 0 12.4141 0C5.78665 0 0.414062 5.37258 0.414062 12C0.414062 18.6274 5.78665 24 12.4141 24ZM12.1141 15V13.79H10.8441V9.29H9.47406C9.44073 9.35 9.36073 9.43333 9.23406 9.54C9.11406 9.64 8.9674 9.74333 8.79406 9.85C8.6274 9.95667 8.4574 10.05 8.28406 10.13C8.1174 10.2033 7.97406 10.24 7.85406 10.24V11.49C7.98073 11.49 8.12406 11.4667 8.28406 11.42C8.44406 11.3733 8.60406 11.3133 8.76406 11.24C8.92406 11.1667 9.0674 11.09 9.19406 11.01C9.32073 10.9233 9.41406 10.84 9.47406 10.76V13.79H8.05406V15H12.1141ZM12.8055 14.19C12.7588 14.43 12.7355 14.7 12.7355 15H17.5555V13.79H14.5055C14.5788 13.67 14.6621 13.5633 14.7555 13.47C14.8555 13.3767 14.9688 13.2867 15.0955 13.2C15.2221 13.1067 15.3688 13.0167 15.5355 12.93C15.7021 12.8367 15.8888 12.7367 16.0955 12.63C16.2421 12.55 16.3921 12.4567 16.5455 12.35C16.7055 12.2433 16.8521 12.1233 16.9855 11.99C17.1188 11.85 17.2288 11.69 17.3155 11.51C17.4021 11.33 17.4455 11.1233 17.4455 10.89C17.4455 10.55 17.3588 10.2533 17.1855 10C17.0188 9.74667 16.7755 9.55 16.4555 9.41C16.1355 9.26333 15.7488 9.19 15.2955 9.19C14.9955 9.19 14.7121 9.22333 14.4455 9.29C14.1855 9.35 13.9455 9.43 13.7255 9.53C13.5121 9.62333 13.3255 9.72667 13.1655 9.84C13.0121 9.94667 12.8888 10.0467 12.7955 10.14L13.6455 11.12C13.7255 11.02 13.8155 10.9267 13.9155 10.84C14.0155 10.7467 14.1221 10.6633 14.2355 10.59C14.3555 10.5167 14.4821 10.46 14.6155 10.42C14.7555 10.38 14.9055 10.36 15.0655 10.36C15.2655 10.36 15.4321 10.3933 15.5655 10.46C15.6988 10.5267 15.8021 10.6167 15.8755 10.73C15.9488 10.8367 15.9855 10.9567 15.9855 11.09C15.9855 11.2167 15.9488 11.33 15.8755 11.43C15.8021 11.5233 15.6921 11.6167 15.5455 11.71C15.4055 11.8033 15.2321 11.9067 15.0255 12.02C14.8188 12.1267 14.5788 12.2533 14.3055 12.4C13.9921 12.5733 13.7321 12.7533 13.5255 12.94C13.3255 13.12 13.1655 13.3133 13.0455 13.52C12.9321 13.7267 12.8521 13.95 12.8055 14.19Z" fill="#C4C4C4"/>
</svg>
